<?xml version="1.0" standalone="no"?>
<!DOCTYPE svg PUBLIC "-//W3C//DTD SVG 20010904//EN"
 "http://www.w3.org/TR/2001/REC-SVG-20010904/DTD/svg10.dtd">
<svg version="1.0" xmlns="http://www.w3.org/2000/svg"
 width="1000.000000pt" height="500.000000pt" viewBox="0 0 1000.000000 500.000000"
 preserveAspectRatio="xMidYMid meet">

<g transform="translate(0.000000,500.000000) scale(0.100000,-0.100000)"
fill="#000000" stroke="none">
<path d="M2245 3588 c44 -204 58 -625 30 -920 -13 -144 -15 -196 -6 -243 33
-183 192 -345 382 -390 81 -19 228 -19 298 0 215 57 352 224 368 450 16 231
-134 440 -367 509 -132 39 -299 28 -411 -29 -29 -14 -54 -24 -56 -22 -2 3 2
116 8 253 13 279 8 319 -39 353 -29 20 -123 54 -181 65 -33 6 -33 6 -26 -26z
m620 -757 c164 -76 217 -346 103 -517 -72 -106 -171 -137 -268 -83 -92 50
-159 197 -147 325 12 128 72 229 161 270 61 29 98 30 151 5z"/>
<path d="M7680 3093 c-144 -54 -496 -107 -815 -123 -125 -6 -172 -12 -215 -29
-116 -44 -230 -167 -268 -290 -27 -87 -23 -278 7 -353 71 -181 238 -298 425
-298 140 0 254 47 337 139 98 107 135 217 127 378 -6 105 -28 181 -73 248 -14
20 -25 40 -25 45 0 4 28 11 63 14 443 41 451 43 481 88 15 23 29 79 40 166 7
49 7 49 -84 15z m-782 -332 c128 -66 180 -270 108 -427 -32 -69 -58 -99 -108
-125 -168 -86 -342 135 -284 361 42 166 168 250 284 191z"/>
<path d="M3758 2981 c-117 -38 -201 -109 -253 -212 -40 -78 -55 -135 -61 -229
-17 -257 115 -456 341 -515 154 -40 341 1 483 105 51 38 54 68 18 146 -29 63
-37 69 -67 45 -83 -65 -217 -121 -290 -121 -94 0 -184 55 -220 134 -37 81 -61
75 324 78 l342 3 -3 65 c-11 237 -101 404 -260 482 -62 31 -74 33 -182 35 -90
2 -127 -1 -172 -16z m271 -205 c42 -30 91 -111 91 -153 l0 -23 -215 0 c-239 0
-229 -3 -199 68 20 49 69 100 119 124 60 28 150 21 204 -16z"/>
<path d="M4515 2979 c-25 -15 -135 -121 -135 -131 0 -4 37 -72 82 -150 113
-199 281 -530 306 -607 l21 -63 -45 -127 c-92 -254 -156 -393 -206 -448 -11
-12 -17 -26 -14 -32 10 -15 70 -29 163 -37 73 -6 82 -5 91 12 11 21 528 1436
547 1500 8 26 10 46 4 57 -13 23 -72 37 -156 37 l-71 0 -37 -117 c-106 -340
-157 -493 -166 -498 -5 -4 -76 128 -162 302 -135 274 -155 308 -177 310 -14 2
-34 -2 -45 -8z"/>
<path d="M5688 2971 c-155 -50 -270 -174 -313 -338 -31 -118 -13 -288 41 -395
32 -63 114 -151 172 -185 105 -62 276 -82 406 -48 116 30 266 125 266 168 0
29 -56 147 -70 147 -6 0 -38 -19 -72 -41 -96 -66 -170 -92 -258 -93 -117 -1
-183 43 -237 159 -24 51 -28 73 -28 145 0 72 4 94 28 145 54 116 119 159 237
159 89 -1 144 -20 249 -87 39 -26 76 -47 82 -47 13 0 69 119 69 147 0 43 -150
138 -266 168 -81 21 -233 19 -306 -4z"/>
</g>
</svg>
